<svg viewBox="0 0 48 48" xmlns="http://www.w3.org/2000/svg" xmlns:xlink="http://www.w3.org/1999/xlink" >
<defs>



 <path fill="#000000" id="i-441" d="M25,37.336C31.073,29.359,41,16.012,41,14c0-0.816-0.004-1.367-6.419-1.609L40.866,1.5l-1.733-1l-6.82,11.824 C30.132,12.275,27.413,12.25,24,12.25C7,12.25,7,12.871,7,14c0,2.012,9.928,15.359,16,23.336L23.001,46H17v2h14v-2h-5.999L25,37.336 z M33.435,14.381c2.463,0.078,4.247,0.186,5.241,0.297c-0.564,1.059-1.802,2.949-3.447,5.322h-5.035L33.435,14.381z M9.299,14.682 C11.278,14.453,16.481,14.25,24,14.25c2.701,0,5.099,0.025,7.16,0.07L27.884,20H12.761C11.092,17.6,9.846,15.705,9.299,14.682z M14.168,22H26.73l-2.597,4.5l1.732,1l3.173-5.5h4.787c-2.78,3.926-6.338,8.748-9.826,13.348C20.509,30.746,16.948,25.918,14.168,22 z"/> 
</defs>

<use x="0" y="0" xlink:href="#i-441"/>

</svg>