<?xml version="1.0" encoding="UTF-8" standalone="no"?> <svg xmlns="http://www.w3.org/2000/svg" viewBox="0 0 21.56 48.96"><defs><style>.cls-1{fill:none;stroke:#333;stroke-linecap:round;stroke-linejoin:round;stroke-width:2px;}</style></defs><title>Asset 23</title><g id="Layer_2" data-name="Layer 2"><g id="Layer_2-2" data-name="Layer 2"><path class="cls-1" d="M7.93,45.87a3,3,0,0,0,5.69,0c3.07-8,7.44-20.94,6.89-28.25-.84-11.14-9.73-9.29-9.73-9.29S1.89,6.48,1.05,17.62C.5,24.93,4.87,37.86,7.93,45.87Z"/><line class="cls-1" x1="20.06" y1="17.27" x2="13.06" y2="17.27"/><line class="cls-1" x1="2.06" y1="25.27" x2="7.06" y2="25.27"/><line class="cls-1" x1="5.06" y1="36.27" x2="10.06" y2="36.27"/><line class="cls-1" x1="20.06" y1="22.27" x2="16.06" y2="22.27"/><path class="cls-1" d="M16.06,3.52l-4,3.64A1.61,1.61,0,0,1,9.71,7L5.06,1"/></g></g></svg>